<svg xmlns="http://www.w3.org/2000/svg" viewBox="0 0 122.05 111.71"><defs><style>.cls-1{fill:#d84444;}.cls-2{fill:#7c7c7c;}</style></defs><g id="图层_2" data-name="图层 2"><g id="图层_1-2" data-name="图层 1"><path class="cls-1" d="M34,56.82A20.9,20.9,0,0,1,54.89,77.69a33.79,33.79,0,0,0,6.58,20.08,34,34,0,0,0,0-40.16,33.5,33.5,0,0,0-3.71-4.27,34,34,0,1,0,0,48.69,39.51,39.51,0,0,1-6.58-12.48A20.86,20.86,0,1,1,34,56.82Z"/><path class="cls-1" d="M88.91,43.67a33.9,33.9,0,0,0-23.74,9.67,39.45,39.45,0,0,1,6.58,12.49A20.85,20.85,0,0,1,108.28,70h13.77A34.08,34.08,0,0,0,88.91,43.67Zm19.37,41.75A20.87,20.87,0,0,1,68,77.69a33.77,33.77,0,0,0-6.58-20.08,34,34,0,0,0,0,40.16,34,34,0,0,0,60.59-12.35Z"/><path class="cls-1" d="M43.63,45.05a31.12,31.12,0,0,1,3.24,1.14l-2.47.92Z"/><path class="cls-1" d="M88.91,43.66h.24c-.37.55-.75,1.09-1.14,1.61l-1.6,2.15-4.16-3.1A34,34,0,0,1,88.91,43.66Z"/><path class="cls-2" d="M102.85.38q-3-.27-6-.34A97.47,97.47,0,0,0,83,.63c.08,1,.12,2,.12,3s0,1.91-.11,2.86a87.3,87.3,0,0,1,8.89-.63C77.3,22.6,62.26,34.18,47.08,40.36a39.16,39.16,0,0,1,6.52,3C68.11,36.46,82.39,25,96.22,9.08c-2.1,12-5.37,21.66-9.93,29.15.87-.06,1.74-.09,2.62-.09,1.18,0,2.36,0,3.51.15,4.55-8.45,7.76-19.06,9.7-32.1.27-1.88.53-3.81.76-5.8Z"/></g></g></svg>